<?xml version="1.0" encoding="UTF-8" standalone="no"?>
<!-- Created with Inkscape (http://www.inkscape.org/) -->

<svg
   width="218mm"
   height="195mm"
   viewBox="109 95 218 195"
   version="1.1"
   id="svg1"
   xml:space="preserve"
   inkscape:version="1.4 (86a8ad7, 2024-10-11)"
   sodipodi:docname="teraterm_shadow_small.svg"
   xmlns:inkscape="http://www.inkscape.org/namespaces/inkscape"
   xmlns:sodipodi="http://sodipodi.sourceforge.net/DTD/sodipodi-0.dtd"
   xmlns:xlink="http://www.w3.org/1999/xlink"
   xmlns="http://www.w3.org/2000/svg"
   xmlns:svg="http://www.w3.org/2000/svg"><sodipodi:namedview
   id="namedview1"
   pagecolor="#ffffff"
   bordercolor="#000000"
   borderopacity="0.25"
   inkscape:showpageshadow="2"
   inkscape:pageopacity="0.0"
   inkscape:pagecheckerboard="0"
   inkscape:deskcolor="#d1d1d1"
   inkscape:document-units="mm"
   showgrid="false"
   inkscape:zoom="1.1496189"
   inkscape:cx="842.88802"
   inkscape:cy="433.18703"
   inkscape:window-width="2712"
   inkscape:window-height="1760"
   inkscape:window-x="20"
   inkscape:window-y="25"
   inkscape:window-maximized="0"
   inkscape:current-layer="svg1" /><defs
   id="defs1">
     
     
     <linearGradient
   id="linearGradient14"
   inkscape:collect="always"><stop
     style="stop-color:#d2d2d2;stop-opacity:1;"
     offset="0"
     id="stop14" /><stop
     style="stop-color:#ffffff;stop-opacity:1;"
     offset="0.04578756"
     id="stop16" /><stop
     style="stop-color:#ffffff;stop-opacity:1;"
     offset="0.94780219"
     id="stop17" /><stop
     style="stop-color:#cacacb;stop-opacity:1;"
     offset="1"
     id="stop15" /></linearGradient><linearGradient
   id="linearGradient5"
   inkscape:collect="always"><stop
     style="stop-color:#e4df30;stop-opacity:1;"
     offset="0"
     id="stop5" /><stop
     style="stop-color:#ffa655;stop-opacity:1;"
     offset="1"
     id="stop6" /></linearGradient><linearGradient
   inkscape:collect="always"
   xlink:href="#linearGradient5"
   id="linearGradient6"
   x1="100.99779"
   y1="-35.476837"
   x2="102.83897"
   y2="218.60736"
   gradientUnits="userSpaceOnUse"
   gradientTransform="matrix(0.5,0,0,0.5,165.57295,115.58927)" /><linearGradient
   inkscape:collect="always"
   xlink:href="#linearGradient14"
   id="linearGradient15"
   x1="7.5732694"
   y1="318.91589"
   x2="426.95093"
   y2="318.91589"
   gradientUnits="userSpaceOnUse"
   gradientTransform="matrix(1,0,0,1.0198511,0,-5.4102412)" /><filter
   style="color-interpolation-filters:sRGB"
   inkscape:label="Drop Shadow"
   id="filter7"
   x="-0.017184395"
   y="-0.076117066"
   width="1.041529"
   height="1.1839496"><feFlood
     result="flood"
     in="SourceGraphic"
     flood-opacity="0.498039"
     flood-color="rgb(0,0,0)"
     id="feFlood6" /><feGaussianBlur
     result="blur"
     in="SourceGraphic"
     stdDeviation="3.000000"
     id="feGaussianBlur6" /><feOffset
     result="offset"
     in="blur"
     dx="3.000000"
     dy="3.000000"
     id="feOffset6" /><feComposite
     result="comp1"
     operator="in"
     in="flood"
     in2="offset"
     id="feComposite6" /><feComposite
     result="comp2"
     operator="over"
     in="SourceGraphic"
     in2="comp1"
     id="feComposite7" /></filter></defs>
       
       
       
       <rect
   x="144.28284"
   y="109.83302"
   rx="0.5"
   ry="0.5"
   width="145"
   height="105"
   stroke="#a0a0a0"
   stroke-width="13"
   id="rect1"
   inkscape:label="Frame"
   style="display:inline" /><rect
   style="display:inline;fill:url(#linearGradient6);stroke:none;stroke-width:3.4825;stroke-opacity:1"
   id="rect3"
   width="138.08923"
   height="101.15036"
   x="147.94781"
   y="111.60224"
   rx="0.39038533"
   ry="0.46488538"
   inkscape:label="display" /><g
   inkscape:groupmode="layer"
   id="layer2"
   inkscape:label="T"
   style="fill:#0000ff;stroke:none;stroke-opacity:1"><path
     style="fill:#0000ff;stroke:none;stroke-width:3.4825;stroke-opacity:1"
     d="m 175.10537,122.5343 -0.11507,17.14608 32.33589,-0.11507 0.23015,60.18389 h 18.29683 l 0.11507,-60.41404 32.22083,0.11507 v -17.14608 z"
     id="path2"
     sodipodi:nodetypes="ccccccccc" /></g><g
   inkscape:groupmode="layer"
   id="layer3"
   inkscape:label="KEYBOAD"
   style="display:inline"><path
     style="display:inline;fill:url(#linearGradient15);stroke:none;stroke-width:0.403951;stroke-dasharray:none;stroke-opacity:1;filter:url(#filter7)"
     d="M 54.540575,276.06169 7.5902336,351.64072 c 0,0 -0.2282978,8.30777 0.9901062,9.7941 1.3494625,1.64621 6.3746532,2.88063 6.3746532,2.88063 l 401.609527,2.81662 c 0,0 7.01424,-0.33767 9.1125,-2.60017 1.5791,-1.70271 0.55374,-10.74674 0.55374,-10.74674 l -48.10107,-76.08044 c 0,0 -2.30756,-2.12282 -3.6865,-2.80732 -1.85684,-0.92174 -5.97976,-1.6523 -5.97976,-1.6523 L 63.746522,272.54093 c 0,0 -3.902248,0.54984 -5.70643,1.3022 -1.271341,0.53017 -3.499517,2.21856 -3.499517,2.21856 z"
     id="path9-2"
     sodipodi:nodetypes="ccsccsccsccsc"
     inkscape:label="UNDER_KEYBOAD"
     transform="matrix(0.5,0,0,0.5,109.28284,97.333018)" /><path
     style="display:inline;fill:#999999;fill-opacity:1;stroke:none;stroke-width:0.2;stroke-dasharray:none;stroke-opacity:1"
     d="m 136.44039,231.73987 -23.01487,39.70066 c 0,0 -1.03475,1.65647 0.14983,2.84547 0.74246,0.74524 3.07225,0.72183 3.07225,0.72183 l 200.80476,1.3809 c 0,0 3.50712,0.17967 4.55625,-0.92956 0.78955,-0.83478 0.1618,-2.98297 0.1618,-2.98297 l -23.93547,-39.93081 c 0,0 -1.15378,-1.04075 -1.84325,-1.37634 -0.92842,-0.4519 -2.98988,-0.81007 -2.98988,-0.81007 l -152.35845,-0.34523 c 0,0 -1.95112,0.26957 -2.85321,0.63843 -0.63567,0.25992 -1.74976,1.08769 -1.74976,1.08769 z"
     id="path9"
     sodipodi:nodetypes="ccsccsccsccsc"
     inkscape:label="UPPER_KEYBOAD" /><path
     style="display:inline;fill:#b7b7b7;fill-opacity:1;stroke:none;stroke-width:0.2;stroke-dasharray:none;stroke-opacity:1"
     d="m 142.6544,235.88255 -11.39236,21.63398 172.26632,0.92059 -11.39237,-22.20935 z"
     id="path10"
     inkscape:label="KEY_TOP" /><rect
     style="display:inline;fill:#ffffff;fill-opacity:1;stroke:none;stroke-width:0.2;stroke-dasharray:none;stroke-opacity:1"
     id="rect10"
     width="172.03616"
     height="3.2220821"
     x="131.26204"
     y="257.63159"
     rx="0.39038533"
     ry="0.46488538"
     inkscape:label="KEY_FRONT" /></g>
       
       </svg>
